<mxfile host="app.diagrams.net" agent="Mozilla/5.0 (Windows NT 10.0; Win64; x64) AppleWebKit/537.36 (KHTML, like Gecko) Chrome/130.0.0.0 Safari/537.36" version="24.8.4">
  <diagram name="Page-1" id="pYs3e-e_6G1K7Ac9q6PP">
    <mxGraphModel dx="2206" dy="1148" grid="1" gridSize="10" guides="1" tooltips="1" connect="1" arrows="1" fold="1" page="1" pageScale="1" pageWidth="850" pageHeight="1100" math="0" shadow="0">
      <root>
        <mxCell id="0" />
        <mxCell id="1" parent="0" />
        <mxCell id="6qlTt5MBjgbb_atxeeEQ-15" style="edgeStyle=orthogonalEdgeStyle;rounded=0;orthogonalLoop=1;jettySize=auto;html=1;entryX=0;entryY=0.5;entryDx=0;entryDy=0;" edge="1" parent="1" source="6qlTt5MBjgbb_atxeeEQ-1" target="6qlTt5MBjgbb_atxeeEQ-7">
          <mxGeometry relative="1" as="geometry" />
        </mxCell>
        <mxCell id="6qlTt5MBjgbb_atxeeEQ-16" style="edgeStyle=orthogonalEdgeStyle;rounded=0;orthogonalLoop=1;jettySize=auto;html=1;entryX=0;entryY=0.5;entryDx=0;entryDy=0;" edge="1" parent="1" source="6qlTt5MBjgbb_atxeeEQ-1" target="6qlTt5MBjgbb_atxeeEQ-8">
          <mxGeometry relative="1" as="geometry" />
        </mxCell>
        <mxCell id="6qlTt5MBjgbb_atxeeEQ-17" style="edgeStyle=orthogonalEdgeStyle;rounded=0;orthogonalLoop=1;jettySize=auto;html=1;entryX=0;entryY=0.5;entryDx=0;entryDy=0;" edge="1" parent="1" source="6qlTt5MBjgbb_atxeeEQ-1" target="6qlTt5MBjgbb_atxeeEQ-9">
          <mxGeometry relative="1" as="geometry" />
        </mxCell>
        <mxCell id="6qlTt5MBjgbb_atxeeEQ-18" style="edgeStyle=orthogonalEdgeStyle;rounded=0;orthogonalLoop=1;jettySize=auto;html=1;" edge="1" parent="1" source="6qlTt5MBjgbb_atxeeEQ-1" target="6qlTt5MBjgbb_atxeeEQ-10">
          <mxGeometry relative="1" as="geometry" />
        </mxCell>
        <mxCell id="6qlTt5MBjgbb_atxeeEQ-19" style="edgeStyle=orthogonalEdgeStyle;rounded=0;orthogonalLoop=1;jettySize=auto;html=1;entryX=0;entryY=0.5;entryDx=0;entryDy=0;" edge="1" parent="1" source="6qlTt5MBjgbb_atxeeEQ-1" target="6qlTt5MBjgbb_atxeeEQ-11">
          <mxGeometry relative="1" as="geometry" />
        </mxCell>
        <mxCell id="6qlTt5MBjgbb_atxeeEQ-20" style="edgeStyle=orthogonalEdgeStyle;rounded=0;orthogonalLoop=1;jettySize=auto;html=1;entryX=0;entryY=0.5;entryDx=0;entryDy=0;" edge="1" parent="1" source="6qlTt5MBjgbb_atxeeEQ-1" target="6qlTt5MBjgbb_atxeeEQ-12">
          <mxGeometry relative="1" as="geometry" />
        </mxCell>
        <mxCell id="6qlTt5MBjgbb_atxeeEQ-21" style="edgeStyle=orthogonalEdgeStyle;rounded=0;orthogonalLoop=1;jettySize=auto;html=1;entryX=0;entryY=0.5;entryDx=0;entryDy=0;" edge="1" parent="1" source="6qlTt5MBjgbb_atxeeEQ-1" target="6qlTt5MBjgbb_atxeeEQ-14">
          <mxGeometry relative="1" as="geometry" />
        </mxCell>
        <mxCell id="6qlTt5MBjgbb_atxeeEQ-1" value="Khách hàng" style="shape=umlActor;verticalLabelPosition=bottom;verticalAlign=top;html=1;outlineConnect=0;" vertex="1" parent="1">
          <mxGeometry x="190" y="300" width="20" height="40" as="geometry" />
        </mxCell>
        <mxCell id="6qlTt5MBjgbb_atxeeEQ-7" value="Tạo tài khoản" style="rounded=0;whiteSpace=wrap;html=1;" vertex="1" parent="1">
          <mxGeometry x="430" y="120" width="120" height="40" as="geometry" />
        </mxCell>
        <mxCell id="6qlTt5MBjgbb_atxeeEQ-8" value="Quên mật khẩu&lt;span style=&quot;color: rgba(0, 0, 0, 0); font-family: monospace; font-size: 0px; text-align: start; text-wrap-mode: nowrap;&quot;&gt;%3CmxGraphModel%3E%3Croot%3E%3CmxCell%20id%3D%220%22%2F%3E%3CmxCell%20id%3D%221%22%20parent%3D%220%22%2F%3E%3CmxCell%20id%3D%222%22%20value%3D%22T%E1%BA%A1o%20t%C3%A0i%20kho%E1%BA%A3n%22%20style%3D%22rounded%3D0%3BwhiteSpace%3Dwrap%3Bhtml%3D1%3B%22%20vertex%3D%221%22%20parent%3D%221%22%3E%3CmxGeometry%20x%3D%22280%22%20y%3D%22600%22%20width%3D%22120%22%20height%3D%2240%22%20as%3D%22geometry%22%2F%3E%3C%2FmxCell%3E%3C%2Froot%3E%3C%2FmxGraphModel%3E&lt;/span&gt;" style="rounded=0;whiteSpace=wrap;html=1;" vertex="1" parent="1">
          <mxGeometry x="430" y="180" width="120" height="40" as="geometry" />
        </mxCell>
        <mxCell id="6qlTt5MBjgbb_atxeeEQ-9" value="Xem món" style="rounded=0;whiteSpace=wrap;html=1;" vertex="1" parent="1">
          <mxGeometry x="430" y="240" width="120" height="40" as="geometry" />
        </mxCell>
        <mxCell id="6qlTt5MBjgbb_atxeeEQ-10" value="Xem thông tin quán" style="rounded=0;whiteSpace=wrap;html=1;" vertex="1" parent="1">
          <mxGeometry x="430" y="300" width="120" height="40" as="geometry" />
        </mxCell>
        <mxCell id="6qlTt5MBjgbb_atxeeEQ-11" value="Xem chương trình khuyến mãi" style="rounded=0;whiteSpace=wrap;html=1;" vertex="1" parent="1">
          <mxGeometry x="430" y="360" width="120" height="40" as="geometry" />
        </mxCell>
        <mxCell id="6qlTt5MBjgbb_atxeeEQ-12" value="Đặt đồ uống" style="rounded=0;whiteSpace=wrap;html=1;" vertex="1" parent="1">
          <mxGeometry x="430" y="420" width="120" height="40" as="geometry" />
        </mxCell>
        <mxCell id="6qlTt5MBjgbb_atxeeEQ-14" value="Đánh giá" style="rounded=0;whiteSpace=wrap;html=1;" vertex="1" parent="1">
          <mxGeometry x="430" y="480" width="120" height="40" as="geometry" />
        </mxCell>
        <mxCell id="6qlTt5MBjgbb_atxeeEQ-24" style="edgeStyle=orthogonalEdgeStyle;rounded=0;orthogonalLoop=1;jettySize=auto;html=1;entryX=1;entryY=0.5;entryDx=0;entryDy=0;" edge="1" parent="1" source="6qlTt5MBjgbb_atxeeEQ-23" target="6qlTt5MBjgbb_atxeeEQ-11">
          <mxGeometry relative="1" as="geometry" />
        </mxCell>
        <mxCell id="6qlTt5MBjgbb_atxeeEQ-25" style="edgeStyle=orthogonalEdgeStyle;rounded=0;orthogonalLoop=1;jettySize=auto;html=1;entryX=1;entryY=0.5;entryDx=0;entryDy=0;" edge="1" parent="1" source="6qlTt5MBjgbb_atxeeEQ-23" target="6qlTt5MBjgbb_atxeeEQ-12">
          <mxGeometry relative="1" as="geometry" />
        </mxCell>
        <mxCell id="6qlTt5MBjgbb_atxeeEQ-26" style="edgeStyle=orthogonalEdgeStyle;rounded=0;orthogonalLoop=1;jettySize=auto;html=1;entryX=1;entryY=0.5;entryDx=0;entryDy=0;" edge="1" parent="1" source="6qlTt5MBjgbb_atxeeEQ-23" target="6qlTt5MBjgbb_atxeeEQ-10">
          <mxGeometry relative="1" as="geometry" />
        </mxCell>
        <mxCell id="6qlTt5MBjgbb_atxeeEQ-31" style="edgeStyle=orthogonalEdgeStyle;rounded=0;orthogonalLoop=1;jettySize=auto;html=1;entryX=1;entryY=0.5;entryDx=0;entryDy=0;" edge="1" parent="1" source="6qlTt5MBjgbb_atxeeEQ-23" target="6qlTt5MBjgbb_atxeeEQ-9">
          <mxGeometry relative="1" as="geometry" />
        </mxCell>
        <mxCell id="6qlTt5MBjgbb_atxeeEQ-32" style="edgeStyle=orthogonalEdgeStyle;rounded=0;orthogonalLoop=1;jettySize=auto;html=1;entryX=1;entryY=0.5;entryDx=0;entryDy=0;" edge="1" parent="1" source="6qlTt5MBjgbb_atxeeEQ-23" target="6qlTt5MBjgbb_atxeeEQ-14">
          <mxGeometry relative="1" as="geometry" />
        </mxCell>
        <mxCell id="6qlTt5MBjgbb_atxeeEQ-33" style="edgeStyle=orthogonalEdgeStyle;rounded=0;orthogonalLoop=1;jettySize=auto;html=1;entryX=0;entryY=0.5;entryDx=0;entryDy=0;" edge="1" parent="1" source="6qlTt5MBjgbb_atxeeEQ-23" target="6qlTt5MBjgbb_atxeeEQ-29">
          <mxGeometry relative="1" as="geometry" />
        </mxCell>
        <mxCell id="6qlTt5MBjgbb_atxeeEQ-34" style="edgeStyle=orthogonalEdgeStyle;rounded=0;orthogonalLoop=1;jettySize=auto;html=1;entryX=0;entryY=0.5;entryDx=0;entryDy=0;" edge="1" parent="1" source="6qlTt5MBjgbb_atxeeEQ-23" target="6qlTt5MBjgbb_atxeeEQ-30">
          <mxGeometry relative="1" as="geometry" />
        </mxCell>
        <mxCell id="6qlTt5MBjgbb_atxeeEQ-60" style="edgeStyle=orthogonalEdgeStyle;rounded=0;orthogonalLoop=1;jettySize=auto;html=1;entryX=0;entryY=0.5;entryDx=0;entryDy=0;" edge="1" parent="1" source="6qlTt5MBjgbb_atxeeEQ-23" target="6qlTt5MBjgbb_atxeeEQ-27">
          <mxGeometry relative="1" as="geometry" />
        </mxCell>
        <mxCell id="6qlTt5MBjgbb_atxeeEQ-23" value="Nhân viên" style="shape=umlActor;verticalLabelPosition=bottom;verticalAlign=top;html=1;outlineConnect=0;" vertex="1" parent="1">
          <mxGeometry x="780" y="360" width="20" height="40" as="geometry" />
        </mxCell>
        <mxCell id="6qlTt5MBjgbb_atxeeEQ-27" value="Kết ca" style="rounded=0;whiteSpace=wrap;html=1;" vertex="1" parent="1">
          <mxGeometry x="1030" y="420" width="120" height="40" as="geometry" />
        </mxCell>
        <mxCell id="6qlTt5MBjgbb_atxeeEQ-29" value="Đăng ký ca" style="rounded=0;whiteSpace=wrap;html=1;" vertex="1" parent="1">
          <mxGeometry x="1030" y="360" width="120" height="40" as="geometry" />
        </mxCell>
        <mxCell id="6qlTt5MBjgbb_atxeeEQ-30" value="Kho lưu trữ" style="rounded=0;whiteSpace=wrap;html=1;" vertex="1" parent="1">
          <mxGeometry x="1030" y="480" width="120" height="40" as="geometry" />
        </mxCell>
        <mxCell id="6qlTt5MBjgbb_atxeeEQ-37" style="edgeStyle=orthogonalEdgeStyle;rounded=0;orthogonalLoop=1;jettySize=auto;html=1;entryX=0.5;entryY=1;entryDx=0;entryDy=0;" edge="1" parent="1" source="6qlTt5MBjgbb_atxeeEQ-35" target="6qlTt5MBjgbb_atxeeEQ-14">
          <mxGeometry relative="1" as="geometry" />
        </mxCell>
        <mxCell id="6qlTt5MBjgbb_atxeeEQ-53" style="edgeStyle=orthogonalEdgeStyle;rounded=0;orthogonalLoop=1;jettySize=auto;html=1;entryX=0.5;entryY=1;entryDx=0;entryDy=0;" edge="1" parent="1" source="6qlTt5MBjgbb_atxeeEQ-35" target="6qlTt5MBjgbb_atxeeEQ-42">
          <mxGeometry relative="1" as="geometry" />
        </mxCell>
        <mxCell id="6qlTt5MBjgbb_atxeeEQ-56" style="edgeStyle=orthogonalEdgeStyle;rounded=0;orthogonalLoop=1;jettySize=auto;html=1;entryX=0.5;entryY=1;entryDx=0;entryDy=0;" edge="1" parent="1" source="6qlTt5MBjgbb_atxeeEQ-35" target="6qlTt5MBjgbb_atxeeEQ-40">
          <mxGeometry relative="1" as="geometry" />
        </mxCell>
        <mxCell id="6qlTt5MBjgbb_atxeeEQ-57" style="edgeStyle=orthogonalEdgeStyle;rounded=0;orthogonalLoop=1;jettySize=auto;html=1;entryX=0.5;entryY=1;entryDx=0;entryDy=0;" edge="1" parent="1" source="6qlTt5MBjgbb_atxeeEQ-35" target="6qlTt5MBjgbb_atxeeEQ-38">
          <mxGeometry relative="1" as="geometry" />
        </mxCell>
        <mxCell id="6qlTt5MBjgbb_atxeeEQ-35" value="Quản lý" style="shape=umlActor;verticalLabelPosition=bottom;verticalAlign=top;html=1;outlineConnect=0;" vertex="1" parent="1">
          <mxGeometry x="780" y="670" width="20" height="40" as="geometry" />
        </mxCell>
        <mxCell id="6qlTt5MBjgbb_atxeeEQ-38" value="Danh sách khách hàng" style="rounded=0;whiteSpace=wrap;html=1;" vertex="1" parent="1">
          <mxGeometry x="1570" y="480" width="140" height="40" as="geometry" />
        </mxCell>
        <mxCell id="6qlTt5MBjgbb_atxeeEQ-40" value="Xem thức uống bán chạy" style="rounded=0;whiteSpace=wrap;html=1;" vertex="1" parent="1">
          <mxGeometry x="1380" y="480" width="140" height="40" as="geometry" />
        </mxCell>
        <mxCell id="6qlTt5MBjgbb_atxeeEQ-42" value="Doanh thu theo tháng" style="rounded=0;whiteSpace=wrap;html=1;" vertex="1" parent="1">
          <mxGeometry x="1190" y="480" width="140" height="40" as="geometry" />
        </mxCell>
        <mxCell id="6qlTt5MBjgbb_atxeeEQ-43" value="Danh sách nhân viên" style="rounded=0;whiteSpace=wrap;html=1;" vertex="1" parent="1">
          <mxGeometry x="1760" y="480" width="140" height="40" as="geometry" />
        </mxCell>
        <mxCell id="6qlTt5MBjgbb_atxeeEQ-51" style="edgeStyle=orthogonalEdgeStyle;rounded=0;orthogonalLoop=1;jettySize=auto;html=1;entryX=0.418;entryY=1.108;entryDx=0;entryDy=0;entryPerimeter=0;" edge="1" parent="1" source="6qlTt5MBjgbb_atxeeEQ-35" target="6qlTt5MBjgbb_atxeeEQ-30">
          <mxGeometry relative="1" as="geometry" />
        </mxCell>
        <mxCell id="6qlTt5MBjgbb_atxeeEQ-58" style="edgeStyle=orthogonalEdgeStyle;rounded=0;orthogonalLoop=1;jettySize=auto;html=1;entryX=0.5;entryY=1;entryDx=0;entryDy=0;" edge="1" parent="1" source="6qlTt5MBjgbb_atxeeEQ-35" target="6qlTt5MBjgbb_atxeeEQ-43">
          <mxGeometry relative="1" as="geometry" />
        </mxCell>
        <mxCell id="6qlTt5MBjgbb_atxeeEQ-61" value="" style="rounded=0;whiteSpace=wrap;html=1;fillColor=none;strokeColor=#d00b15;strokeWidth=5;" vertex="1" parent="1">
          <mxGeometry x="160" y="80" width="410" height="460" as="geometry" />
        </mxCell>
        <mxCell id="6qlTt5MBjgbb_atxeeEQ-62" value="" style="rounded=0;whiteSpace=wrap;html=1;fillColor=none;strokeColor=#0b23d5;strokeWidth=5;" vertex="1" parent="1">
          <mxGeometry x="410" y="240" width="770" height="310" as="geometry" />
        </mxCell>
        <mxCell id="6qlTt5MBjgbb_atxeeEQ-63" value="" style="rounded=0;whiteSpace=wrap;html=1;fillColor=none;strokeColor=#2dbc10;strokeWidth=5;" vertex="1" parent="1">
          <mxGeometry x="380" y="470" width="1540" height="280" as="geometry" />
        </mxCell>
      </root>
    </mxGraphModel>
  </diagram>
</mxfile>
